<svg xmlns="http://www.w3.org/2000/svg" width="512" height="512" viewBox="0 0 24 24" fill="#000000"><g fill="none" stroke-linecap="round" stroke-linejoin="round" stroke-width="2"><path d="M0 0h24v24H0z"/><path fill="#000000" d="M18 3a3 3 0 0 1 3 3v12a3 3 0 0 1-3 3H6a3 3 0 0 1-3-3V6a3 3 0 0 1 3-3h12zm-2.293 6.293a1 1 0 0 0-1.414 0L12 11.585l-1.293-1.292a1 1 0 0 0-1.414 0l-3 3a1 1 0 0 0 0 1.414l.094.083a1 1 0 0 0 1.32-.083L10 12.415l1.293 1.292l.094.083a1 1 0 0 0 1.32-.083L15 11.415l1.293 1.292a1 1 0 0 0 1.414-1.414l-2-2z"/></g></svg>